<svg xmlns="http://www.w3.org/2000/svg" fill="none" viewBox="0 0 128 128">
  <path fill="#3B82F6" d="M50.4 78.5a75.1 75.1 0 0 0-28.5 6.9l24.2-65.7c.7-2 3.1-3.1 5.1-2.3l19.3 7.5c2 .8 3.1 3 2.3 5l-22.4 48.6z"/>
  <path fill="#2563EB" d="M56.2 83.3a64.1 64.1 0 0 0-28.8 15.6l-7.8-3c-2-.8-3.1-3-2.3-5l5-13.7a75.2 75.2 0 0 1 35.6-8.9l-1.7 15z"/>
  <path fill="#14B8A6" d="M85.6 73.7a69.3 69.3 0 0 0-34.4 3.6L74.4 25a3.7 3.7 0 0 1 5-2.3L98.8 30c2 .8 3.1 3 2.3 5l-15.5 38.7z"/>
  <path fill="#0D9488" d="M77.8 85.8a70.6 70.6 0 0 0-22.2 12.3l-7.9-3c-2-.8-3-3-2.3-5l3.2-8.3a69.2 69.2 0 0 1 32.5-4.1l-3.3 8z"/>
  <path fill="#F97316" d="M108.6 47.8a50.3 50.3 0 0 0-34.4 9.7l11.5-29c.8-2 3-3 5-2.3l14.4 5.7c2 .7 3 3 2.3 5l1.2 10.9z"/>
  <path fill="#EA580C" d="M123.3 71.3a56.8 56.8 0 0 0-14.7-23.5l1.2-3a3.7 3.7 0 0 1 5-2.3l8.4 3.3c2 .8 3 3 2.3 5l-2.2 20.5z"/>
</svg>